<mxfile host="app.diagrams.net" modified="2024-12-22T16:50:21.554Z" agent="Mozilla/5.0 (Macintosh; Intel Mac OS X 10_15_7) AppleWebKit/537.36 (KHTML, like Gecko) Chrome/131.0.0.0 Safari/537.36" etag="hs-CXsRB1Yc4GFSZgzti" version="22.1.21" type="github">
  <diagram id="R2lEEEUBdFMjLlhIrx00" name="Page-1">
    <mxGraphModel dx="2335" dy="2503" grid="1" gridSize="10" guides="1" tooltips="1" connect="1" arrows="1" fold="1" page="1" pageScale="1" pageWidth="850" pageHeight="1100" math="0" shadow="0" extFonts="Permanent Marker^https://fonts.googleapis.com/css?family=Permanent+Marker">
      <root>
        <mxCell id="0" />
        <mxCell id="1" parent="0" />
        <mxCell id="C-vyLk0tnHw3VtMMgP7b-23" value="Lecture" style="shape=table;startSize=30;container=1;collapsible=1;childLayout=tableLayout;fixedRows=1;rowLines=0;fontStyle=1;align=center;resizeLast=1;" parent="1" vertex="1">
          <mxGeometry x="20" y="-500" width="345" height="370" as="geometry" />
        </mxCell>
        <mxCell id="C-vyLk0tnHw3VtMMgP7b-24" value="" style="shape=partialRectangle;collapsible=0;dropTarget=0;pointerEvents=0;fillColor=none;points=[[0,0.5],[1,0.5]];portConstraint=eastwest;top=0;left=0;right=0;bottom=1;" parent="C-vyLk0tnHw3VtMMgP7b-23" vertex="1">
          <mxGeometry y="30" width="345" height="30" as="geometry" />
        </mxCell>
        <mxCell id="C-vyLk0tnHw3VtMMgP7b-25" value="PK" style="shape=partialRectangle;overflow=hidden;connectable=0;fillColor=none;top=0;left=0;bottom=0;right=0;fontStyle=1;" parent="C-vyLk0tnHw3VtMMgP7b-24" vertex="1">
          <mxGeometry width="30" height="30" as="geometry">
            <mxRectangle width="30" height="30" as="alternateBounds" />
          </mxGeometry>
        </mxCell>
        <mxCell id="C-vyLk0tnHw3VtMMgP7b-26" value="pid" style="shape=partialRectangle;overflow=hidden;connectable=0;fillColor=none;top=0;left=0;bottom=0;right=0;align=left;spacingLeft=6;fontStyle=5;" parent="C-vyLk0tnHw3VtMMgP7b-24" vertex="1">
          <mxGeometry x="30" width="315" height="30" as="geometry">
            <mxRectangle width="315" height="30" as="alternateBounds" />
          </mxGeometry>
        </mxCell>
        <mxCell id="7Qh_DBudkcrgo4F9Finx-18" value="" style="shape=partialRectangle;collapsible=0;dropTarget=0;pointerEvents=0;fillColor=none;points=[[0,0.5],[1,0.5]];portConstraint=eastwest;top=0;left=0;right=0;bottom=0;" vertex="1" parent="C-vyLk0tnHw3VtMMgP7b-23">
          <mxGeometry y="60" width="345" height="30" as="geometry" />
        </mxCell>
        <mxCell id="7Qh_DBudkcrgo4F9Finx-19" value="" style="shape=partialRectangle;overflow=hidden;connectable=0;fillColor=none;top=0;left=0;bottom=0;right=0;" vertex="1" parent="7Qh_DBudkcrgo4F9Finx-18">
          <mxGeometry width="30" height="30" as="geometry">
            <mxRectangle width="30" height="30" as="alternateBounds" />
          </mxGeometry>
        </mxCell>
        <mxCell id="7Qh_DBudkcrgo4F9Finx-20" value="name  varchar(100) not null " style="shape=partialRectangle;overflow=hidden;connectable=0;fillColor=none;top=0;left=0;bottom=0;right=0;align=left;spacingLeft=6;" vertex="1" parent="7Qh_DBudkcrgo4F9Finx-18">
          <mxGeometry x="30" width="315" height="30" as="geometry">
            <mxRectangle width="315" height="30" as="alternateBounds" />
          </mxGeometry>
        </mxCell>
        <mxCell id="7Qh_DBudkcrgo4F9Finx-27" value="" style="shape=partialRectangle;collapsible=0;dropTarget=0;pointerEvents=0;fillColor=none;points=[[0,0.5],[1,0.5]];portConstraint=eastwest;top=0;left=0;right=0;bottom=0;" vertex="1" parent="C-vyLk0tnHw3VtMMgP7b-23">
          <mxGeometry y="90" width="345" height="30" as="geometry" />
        </mxCell>
        <mxCell id="7Qh_DBudkcrgo4F9Finx-28" value="" style="shape=partialRectangle;overflow=hidden;connectable=0;fillColor=none;top=0;left=0;bottom=0;right=0;" vertex="1" parent="7Qh_DBudkcrgo4F9Finx-27">
          <mxGeometry width="30" height="30" as="geometry">
            <mxRectangle width="30" height="30" as="alternateBounds" />
          </mxGeometry>
        </mxCell>
        <mxCell id="7Qh_DBudkcrgo4F9Finx-29" value="instructorName  varchar(100) not null" style="shape=partialRectangle;overflow=hidden;connectable=0;fillColor=none;top=0;left=0;bottom=0;right=0;align=left;spacingLeft=6;" vertex="1" parent="7Qh_DBudkcrgo4F9Finx-27">
          <mxGeometry x="30" width="315" height="30" as="geometry">
            <mxRectangle width="315" height="30" as="alternateBounds" />
          </mxGeometry>
        </mxCell>
        <mxCell id="7Qh_DBudkcrgo4F9Finx-39" value="" style="shape=partialRectangle;collapsible=0;dropTarget=0;pointerEvents=0;fillColor=none;points=[[0,0.5],[1,0.5]];portConstraint=eastwest;top=0;left=0;right=0;bottom=0;" vertex="1" parent="C-vyLk0tnHw3VtMMgP7b-23">
          <mxGeometry y="120" width="345" height="30" as="geometry" />
        </mxCell>
        <mxCell id="7Qh_DBudkcrgo4F9Finx-40" value="" style="shape=partialRectangle;overflow=hidden;connectable=0;fillColor=none;top=0;left=0;bottom=0;right=0;" vertex="1" parent="7Qh_DBudkcrgo4F9Finx-39">
          <mxGeometry width="30" height="30" as="geometry">
            <mxRectangle width="30" height="30" as="alternateBounds" />
          </mxGeometry>
        </mxCell>
        <mxCell id="7Qh_DBudkcrgo4F9Finx-41" value="location varchar(20)  not null" style="shape=partialRectangle;overflow=hidden;connectable=0;fillColor=none;top=0;left=0;bottom=0;right=0;align=left;spacingLeft=6;" vertex="1" parent="7Qh_DBudkcrgo4F9Finx-39">
          <mxGeometry x="30" width="315" height="30" as="geometry">
            <mxRectangle width="315" height="30" as="alternateBounds" />
          </mxGeometry>
        </mxCell>
        <mxCell id="7Qh_DBudkcrgo4F9Finx-21" value="" style="shape=partialRectangle;collapsible=0;dropTarget=0;pointerEvents=0;fillColor=none;points=[[0,0.5],[1,0.5]];portConstraint=eastwest;top=0;left=0;right=0;bottom=0;" vertex="1" parent="C-vyLk0tnHw3VtMMgP7b-23">
          <mxGeometry y="150" width="345" height="30" as="geometry" />
        </mxCell>
        <mxCell id="7Qh_DBudkcrgo4F9Finx-22" value="" style="shape=partialRectangle;overflow=hidden;connectable=0;fillColor=none;top=0;left=0;bottom=0;right=0;" vertex="1" parent="7Qh_DBudkcrgo4F9Finx-21">
          <mxGeometry width="30" height="30" as="geometry">
            <mxRectangle width="30" height="30" as="alternateBounds" />
          </mxGeometry>
        </mxCell>
        <mxCell id="7Qh_DBudkcrgo4F9Finx-23" value="lectureDate Date (100) not null" style="shape=partialRectangle;overflow=hidden;connectable=0;fillColor=none;top=0;left=0;bottom=0;right=0;align=left;spacingLeft=6;" vertex="1" parent="7Qh_DBudkcrgo4F9Finx-21">
          <mxGeometry x="30" width="315" height="30" as="geometry">
            <mxRectangle width="315" height="30" as="alternateBounds" />
          </mxGeometry>
        </mxCell>
        <mxCell id="7Qh_DBudkcrgo4F9Finx-24" value="" style="shape=partialRectangle;collapsible=0;dropTarget=0;pointerEvents=0;fillColor=none;points=[[0,0.5],[1,0.5]];portConstraint=eastwest;top=0;left=0;right=0;bottom=0;" vertex="1" parent="C-vyLk0tnHw3VtMMgP7b-23">
          <mxGeometry y="180" width="345" height="30" as="geometry" />
        </mxCell>
        <mxCell id="7Qh_DBudkcrgo4F9Finx-25" value="" style="shape=partialRectangle;overflow=hidden;connectable=0;fillColor=none;top=0;left=0;bottom=0;right=0;" vertex="1" parent="7Qh_DBudkcrgo4F9Finx-24">
          <mxGeometry width="30" height="30" as="geometry">
            <mxRectangle width="30" height="30" as="alternateBounds" />
          </mxGeometry>
        </mxCell>
        <mxCell id="7Qh_DBudkcrgo4F9Finx-26" value="lectureDay  char(1)  not null" style="shape=partialRectangle;overflow=hidden;connectable=0;fillColor=none;top=0;left=0;bottom=0;right=0;align=left;spacingLeft=6;" vertex="1" parent="7Qh_DBudkcrgo4F9Finx-24">
          <mxGeometry x="30" width="315" height="30" as="geometry">
            <mxRectangle width="315" height="30" as="alternateBounds" />
          </mxGeometry>
        </mxCell>
        <mxCell id="7Qh_DBudkcrgo4F9Finx-42" value="" style="shape=partialRectangle;collapsible=0;dropTarget=0;pointerEvents=0;fillColor=none;points=[[0,0.5],[1,0.5]];portConstraint=eastwest;top=0;left=0;right=0;bottom=0;" vertex="1" parent="C-vyLk0tnHw3VtMMgP7b-23">
          <mxGeometry y="210" width="345" height="30" as="geometry" />
        </mxCell>
        <mxCell id="7Qh_DBudkcrgo4F9Finx-43" value="" style="shape=partialRectangle;overflow=hidden;connectable=0;fillColor=none;top=0;left=0;bottom=0;right=0;" vertex="1" parent="7Qh_DBudkcrgo4F9Finx-42">
          <mxGeometry width="30" height="30" as="geometry">
            <mxRectangle width="30" height="30" as="alternateBounds" />
          </mxGeometry>
        </mxCell>
        <mxCell id="7Qh_DBudkcrgo4F9Finx-44" value="isEnrollmentOpen Booelan" style="shape=partialRectangle;overflow=hidden;connectable=0;fillColor=none;top=0;left=0;bottom=0;right=0;align=left;spacingLeft=6;" vertex="1" parent="7Qh_DBudkcrgo4F9Finx-42">
          <mxGeometry x="30" width="315" height="30" as="geometry">
            <mxRectangle width="315" height="30" as="alternateBounds" />
          </mxGeometry>
        </mxCell>
        <mxCell id="7Qh_DBudkcrgo4F9Finx-30" value="" style="shape=partialRectangle;collapsible=0;dropTarget=0;pointerEvents=0;fillColor=none;points=[[0,0.5],[1,0.5]];portConstraint=eastwest;top=0;left=0;right=0;bottom=0;" vertex="1" parent="C-vyLk0tnHw3VtMMgP7b-23">
          <mxGeometry y="240" width="345" height="30" as="geometry" />
        </mxCell>
        <mxCell id="7Qh_DBudkcrgo4F9Finx-31" value="" style="shape=partialRectangle;overflow=hidden;connectable=0;fillColor=none;top=0;left=0;bottom=0;right=0;" vertex="1" parent="7Qh_DBudkcrgo4F9Finx-30">
          <mxGeometry width="30" height="30" as="geometry">
            <mxRectangle width="30" height="30" as="alternateBounds" />
          </mxGeometry>
        </mxCell>
        <mxCell id="7Qh_DBudkcrgo4F9Finx-32" value="startTime Int not null" style="shape=partialRectangle;overflow=hidden;connectable=0;fillColor=none;top=0;left=0;bottom=0;right=0;align=left;spacingLeft=6;" vertex="1" parent="7Qh_DBudkcrgo4F9Finx-30">
          <mxGeometry x="30" width="315" height="30" as="geometry">
            <mxRectangle width="315" height="30" as="alternateBounds" />
          </mxGeometry>
        </mxCell>
        <mxCell id="7Qh_DBudkcrgo4F9Finx-33" value="" style="shape=partialRectangle;collapsible=0;dropTarget=0;pointerEvents=0;fillColor=none;points=[[0,0.5],[1,0.5]];portConstraint=eastwest;top=0;left=0;right=0;bottom=0;" vertex="1" parent="C-vyLk0tnHw3VtMMgP7b-23">
          <mxGeometry y="270" width="345" height="30" as="geometry" />
        </mxCell>
        <mxCell id="7Qh_DBudkcrgo4F9Finx-34" value="" style="shape=partialRectangle;overflow=hidden;connectable=0;fillColor=none;top=0;left=0;bottom=0;right=0;" vertex="1" parent="7Qh_DBudkcrgo4F9Finx-33">
          <mxGeometry width="30" height="30" as="geometry">
            <mxRectangle width="30" height="30" as="alternateBounds" />
          </mxGeometry>
        </mxCell>
        <mxCell id="7Qh_DBudkcrgo4F9Finx-35" value="endTime Int not null" style="shape=partialRectangle;overflow=hidden;connectable=0;fillColor=none;top=0;left=0;bottom=0;right=0;align=left;spacingLeft=6;" vertex="1" parent="7Qh_DBudkcrgo4F9Finx-33">
          <mxGeometry x="30" width="315" height="30" as="geometry">
            <mxRectangle width="315" height="30" as="alternateBounds" />
          </mxGeometry>
        </mxCell>
        <mxCell id="7Qh_DBudkcrgo4F9Finx-36" value="" style="shape=partialRectangle;collapsible=0;dropTarget=0;pointerEvents=0;fillColor=none;points=[[0,0.5],[1,0.5]];portConstraint=eastwest;top=0;left=0;right=0;bottom=0;" vertex="1" parent="C-vyLk0tnHw3VtMMgP7b-23">
          <mxGeometry y="300" width="345" height="30" as="geometry" />
        </mxCell>
        <mxCell id="7Qh_DBudkcrgo4F9Finx-37" value="" style="shape=partialRectangle;overflow=hidden;connectable=0;fillColor=none;top=0;left=0;bottom=0;right=0;" vertex="1" parent="7Qh_DBudkcrgo4F9Finx-36">
          <mxGeometry width="30" height="30" as="geometry">
            <mxRectangle width="30" height="30" as="alternateBounds" />
          </mxGeometry>
        </mxCell>
        <mxCell id="7Qh_DBudkcrgo4F9Finx-38" value="createDateTime DateTime not null" style="shape=partialRectangle;overflow=hidden;connectable=0;fillColor=none;top=0;left=0;bottom=0;right=0;align=left;spacingLeft=6;" vertex="1" parent="7Qh_DBudkcrgo4F9Finx-36">
          <mxGeometry x="30" width="315" height="30" as="geometry">
            <mxRectangle width="315" height="30" as="alternateBounds" />
          </mxGeometry>
        </mxCell>
        <mxCell id="C-vyLk0tnHw3VtMMgP7b-27" value="" style="shape=partialRectangle;collapsible=0;dropTarget=0;pointerEvents=0;fillColor=none;points=[[0,0.5],[1,0.5]];portConstraint=eastwest;top=0;left=0;right=0;bottom=0;" parent="C-vyLk0tnHw3VtMMgP7b-23" vertex="1">
          <mxGeometry y="330" width="345" height="30" as="geometry" />
        </mxCell>
        <mxCell id="C-vyLk0tnHw3VtMMgP7b-28" value="" style="shape=partialRectangle;overflow=hidden;connectable=0;fillColor=none;top=0;left=0;bottom=0;right=0;" parent="C-vyLk0tnHw3VtMMgP7b-27" vertex="1">
          <mxGeometry width="30" height="30" as="geometry">
            <mxRectangle width="30" height="30" as="alternateBounds" />
          </mxGeometry>
        </mxCell>
        <mxCell id="C-vyLk0tnHw3VtMMgP7b-29" value="updateDateTime DateTime not null" style="shape=partialRectangle;overflow=hidden;connectable=0;fillColor=none;top=0;left=0;bottom=0;right=0;align=left;spacingLeft=6;" parent="C-vyLk0tnHw3VtMMgP7b-27" vertex="1">
          <mxGeometry x="30" width="315" height="30" as="geometry">
            <mxRectangle width="315" height="30" as="alternateBounds" />
          </mxGeometry>
        </mxCell>
        <mxCell id="7Qh_DBudkcrgo4F9Finx-45" value="  Student" style="shape=table;startSize=30;container=1;collapsible=1;childLayout=tableLayout;fixedRows=1;rowLines=0;fontStyle=1;align=center;resizeLast=1;" vertex="1" parent="1">
          <mxGeometry x="20" width="345" height="161" as="geometry" />
        </mxCell>
        <mxCell id="7Qh_DBudkcrgo4F9Finx-46" value="" style="shape=partialRectangle;collapsible=0;dropTarget=0;pointerEvents=0;fillColor=none;points=[[0,0.5],[1,0.5]];portConstraint=eastwest;top=0;left=0;right=0;bottom=1;" vertex="1" parent="7Qh_DBudkcrgo4F9Finx-45">
          <mxGeometry y="30" width="345" height="30" as="geometry" />
        </mxCell>
        <mxCell id="7Qh_DBudkcrgo4F9Finx-47" value="PK" style="shape=partialRectangle;overflow=hidden;connectable=0;fillColor=none;top=0;left=0;bottom=0;right=0;fontStyle=1;" vertex="1" parent="7Qh_DBudkcrgo4F9Finx-46">
          <mxGeometry width="30" height="30" as="geometry">
            <mxRectangle width="30" height="30" as="alternateBounds" />
          </mxGeometry>
        </mxCell>
        <mxCell id="7Qh_DBudkcrgo4F9Finx-48" value="pid" style="shape=partialRectangle;overflow=hidden;connectable=0;fillColor=none;top=0;left=0;bottom=0;right=0;align=left;spacingLeft=6;fontStyle=5;" vertex="1" parent="7Qh_DBudkcrgo4F9Finx-46">
          <mxGeometry x="30" width="315" height="30" as="geometry">
            <mxRectangle width="315" height="30" as="alternateBounds" />
          </mxGeometry>
        </mxCell>
        <mxCell id="7Qh_DBudkcrgo4F9Finx-49" value="" style="shape=partialRectangle;collapsible=0;dropTarget=0;pointerEvents=0;fillColor=none;points=[[0,0.5],[1,0.5]];portConstraint=eastwest;top=0;left=0;right=0;bottom=0;" vertex="1" parent="7Qh_DBudkcrgo4F9Finx-45">
          <mxGeometry y="60" width="345" height="30" as="geometry" />
        </mxCell>
        <mxCell id="7Qh_DBudkcrgo4F9Finx-50" value="" style="shape=partialRectangle;overflow=hidden;connectable=0;fillColor=none;top=0;left=0;bottom=0;right=0;" vertex="1" parent="7Qh_DBudkcrgo4F9Finx-49">
          <mxGeometry width="30" height="30" as="geometry">
            <mxRectangle width="30" height="30" as="alternateBounds" />
          </mxGeometry>
        </mxCell>
        <mxCell id="7Qh_DBudkcrgo4F9Finx-51" value="name  varchar(100) not null " style="shape=partialRectangle;overflow=hidden;connectable=0;fillColor=none;top=0;left=0;bottom=0;right=0;align=left;spacingLeft=6;" vertex="1" parent="7Qh_DBudkcrgo4F9Finx-49">
          <mxGeometry x="30" width="315" height="30" as="geometry">
            <mxRectangle width="315" height="30" as="alternateBounds" />
          </mxGeometry>
        </mxCell>
        <mxCell id="7Qh_DBudkcrgo4F9Finx-64" value="" style="shape=partialRectangle;collapsible=0;dropTarget=0;pointerEvents=0;fillColor=none;points=[[0,0.5],[1,0.5]];portConstraint=eastwest;top=0;left=0;right=0;bottom=0;" vertex="1" parent="7Qh_DBudkcrgo4F9Finx-45">
          <mxGeometry y="90" width="345" height="30" as="geometry" />
        </mxCell>
        <mxCell id="7Qh_DBudkcrgo4F9Finx-65" value="" style="shape=partialRectangle;overflow=hidden;connectable=0;fillColor=none;top=0;left=0;bottom=0;right=0;" vertex="1" parent="7Qh_DBudkcrgo4F9Finx-64">
          <mxGeometry width="30" height="30" as="geometry">
            <mxRectangle width="30" height="30" as="alternateBounds" />
          </mxGeometry>
        </mxCell>
        <mxCell id="7Qh_DBudkcrgo4F9Finx-66" value="createDateTime Datetime not null" style="shape=partialRectangle;overflow=hidden;connectable=0;fillColor=none;top=0;left=0;bottom=0;right=0;align=left;spacingLeft=6;" vertex="1" parent="7Qh_DBudkcrgo4F9Finx-64">
          <mxGeometry x="30" width="315" height="30" as="geometry">
            <mxRectangle width="315" height="30" as="alternateBounds" />
          </mxGeometry>
        </mxCell>
        <mxCell id="7Qh_DBudkcrgo4F9Finx-67" value="" style="shape=partialRectangle;collapsible=0;dropTarget=0;pointerEvents=0;fillColor=none;points=[[0,0.5],[1,0.5]];portConstraint=eastwest;top=0;left=0;right=0;bottom=0;" vertex="1" parent="7Qh_DBudkcrgo4F9Finx-45">
          <mxGeometry y="120" width="345" height="30" as="geometry" />
        </mxCell>
        <mxCell id="7Qh_DBudkcrgo4F9Finx-68" value="" style="shape=partialRectangle;overflow=hidden;connectable=0;fillColor=none;top=0;left=0;bottom=0;right=0;" vertex="1" parent="7Qh_DBudkcrgo4F9Finx-67">
          <mxGeometry width="30" height="30" as="geometry">
            <mxRectangle width="30" height="30" as="alternateBounds" />
          </mxGeometry>
        </mxCell>
        <mxCell id="7Qh_DBudkcrgo4F9Finx-69" value="updateDateTime DateTime not null" style="shape=partialRectangle;overflow=hidden;connectable=0;fillColor=none;top=0;left=0;bottom=0;right=0;align=left;spacingLeft=6;" vertex="1" parent="7Qh_DBudkcrgo4F9Finx-67">
          <mxGeometry x="30" width="315" height="30" as="geometry">
            <mxRectangle width="315" height="30" as="alternateBounds" />
          </mxGeometry>
        </mxCell>
        <mxCell id="7Qh_DBudkcrgo4F9Finx-79" value="AppliedLectures" style="shape=table;startSize=31;container=1;collapsible=1;childLayout=tableLayout;fixedRows=1;rowLines=0;fontStyle=1;align=center;resizeLast=1;" vertex="1" parent="1">
          <mxGeometry x="505" y="-180" width="345" height="191" as="geometry" />
        </mxCell>
        <mxCell id="7Qh_DBudkcrgo4F9Finx-80" value="" style="shape=partialRectangle;collapsible=0;dropTarget=0;pointerEvents=0;fillColor=none;points=[[0,0.5],[1,0.5]];portConstraint=eastwest;top=0;left=0;right=0;bottom=1;" vertex="1" parent="7Qh_DBudkcrgo4F9Finx-79">
          <mxGeometry y="31" width="345" height="30" as="geometry" />
        </mxCell>
        <mxCell id="7Qh_DBudkcrgo4F9Finx-81" value="PK" style="shape=partialRectangle;overflow=hidden;connectable=0;fillColor=none;top=0;left=0;bottom=0;right=0;fontStyle=1;" vertex="1" parent="7Qh_DBudkcrgo4F9Finx-80">
          <mxGeometry width="30" height="30" as="geometry">
            <mxRectangle width="30" height="30" as="alternateBounds" />
          </mxGeometry>
        </mxCell>
        <mxCell id="7Qh_DBudkcrgo4F9Finx-82" value="pid" style="shape=partialRectangle;overflow=hidden;connectable=0;fillColor=none;top=0;left=0;bottom=0;right=0;align=left;spacingLeft=6;fontStyle=5;" vertex="1" parent="7Qh_DBudkcrgo4F9Finx-80">
          <mxGeometry x="30" width="315" height="30" as="geometry">
            <mxRectangle width="315" height="30" as="alternateBounds" />
          </mxGeometry>
        </mxCell>
        <mxCell id="7Qh_DBudkcrgo4F9Finx-83" value="" style="shape=partialRectangle;collapsible=0;dropTarget=0;pointerEvents=0;fillColor=none;points=[[0,0.5],[1,0.5]];portConstraint=eastwest;top=0;left=0;right=0;bottom=0;" vertex="1" parent="7Qh_DBudkcrgo4F9Finx-79">
          <mxGeometry y="61" width="345" height="30" as="geometry" />
        </mxCell>
        <mxCell id="7Qh_DBudkcrgo4F9Finx-84" value="FK" style="shape=partialRectangle;overflow=hidden;connectable=0;fillColor=none;top=0;left=0;bottom=0;right=0;" vertex="1" parent="7Qh_DBudkcrgo4F9Finx-83">
          <mxGeometry width="30" height="30" as="geometry">
            <mxRectangle width="30" height="30" as="alternateBounds" />
          </mxGeometry>
        </mxCell>
        <mxCell id="7Qh_DBudkcrgo4F9Finx-85" value="lecturePid long not null" style="shape=partialRectangle;overflow=hidden;connectable=0;fillColor=none;top=0;left=0;bottom=0;right=0;align=left;spacingLeft=6;" vertex="1" parent="7Qh_DBudkcrgo4F9Finx-83">
          <mxGeometry x="30" width="315" height="30" as="geometry">
            <mxRectangle width="315" height="30" as="alternateBounds" />
          </mxGeometry>
        </mxCell>
        <mxCell id="7Qh_DBudkcrgo4F9Finx-92" value="" style="shape=partialRectangle;collapsible=0;dropTarget=0;pointerEvents=0;fillColor=none;points=[[0,0.5],[1,0.5]];portConstraint=eastwest;top=0;left=0;right=0;bottom=0;" vertex="1" parent="7Qh_DBudkcrgo4F9Finx-79">
          <mxGeometry y="91" width="345" height="30" as="geometry" />
        </mxCell>
        <mxCell id="7Qh_DBudkcrgo4F9Finx-93" value="FK" style="shape=partialRectangle;overflow=hidden;connectable=0;fillColor=none;top=0;left=0;bottom=0;right=0;" vertex="1" parent="7Qh_DBudkcrgo4F9Finx-92">
          <mxGeometry width="30" height="30" as="geometry">
            <mxRectangle width="30" height="30" as="alternateBounds" />
          </mxGeometry>
        </mxCell>
        <mxCell id="7Qh_DBudkcrgo4F9Finx-94" value="studentPid long not null" style="shape=partialRectangle;overflow=hidden;connectable=0;fillColor=none;top=0;left=0;bottom=0;right=0;align=left;spacingLeft=6;" vertex="1" parent="7Qh_DBudkcrgo4F9Finx-92">
          <mxGeometry x="30" width="315" height="30" as="geometry">
            <mxRectangle width="315" height="30" as="alternateBounds" />
          </mxGeometry>
        </mxCell>
        <mxCell id="7Qh_DBudkcrgo4F9Finx-86" value="" style="shape=partialRectangle;collapsible=0;dropTarget=0;pointerEvents=0;fillColor=none;points=[[0,0.5],[1,0.5]];portConstraint=eastwest;top=0;left=0;right=0;bottom=0;" vertex="1" parent="7Qh_DBudkcrgo4F9Finx-79">
          <mxGeometry y="121" width="345" height="30" as="geometry" />
        </mxCell>
        <mxCell id="7Qh_DBudkcrgo4F9Finx-87" value="" style="shape=partialRectangle;overflow=hidden;connectable=0;fillColor=none;top=0;left=0;bottom=0;right=0;" vertex="1" parent="7Qh_DBudkcrgo4F9Finx-86">
          <mxGeometry width="30" height="30" as="geometry">
            <mxRectangle width="30" height="30" as="alternateBounds" />
          </mxGeometry>
        </mxCell>
        <mxCell id="7Qh_DBudkcrgo4F9Finx-88" value="createDateTime Datetime not null" style="shape=partialRectangle;overflow=hidden;connectable=0;fillColor=none;top=0;left=0;bottom=0;right=0;align=left;spacingLeft=6;" vertex="1" parent="7Qh_DBudkcrgo4F9Finx-86">
          <mxGeometry x="30" width="315" height="30" as="geometry">
            <mxRectangle width="315" height="30" as="alternateBounds" />
          </mxGeometry>
        </mxCell>
        <mxCell id="7Qh_DBudkcrgo4F9Finx-89" value="" style="shape=partialRectangle;collapsible=0;dropTarget=0;pointerEvents=0;fillColor=none;points=[[0,0.5],[1,0.5]];portConstraint=eastwest;top=0;left=0;right=0;bottom=0;" vertex="1" parent="7Qh_DBudkcrgo4F9Finx-79">
          <mxGeometry y="151" width="345" height="30" as="geometry" />
        </mxCell>
        <mxCell id="7Qh_DBudkcrgo4F9Finx-90" value="" style="shape=partialRectangle;overflow=hidden;connectable=0;fillColor=none;top=0;left=0;bottom=0;right=0;" vertex="1" parent="7Qh_DBudkcrgo4F9Finx-89">
          <mxGeometry width="30" height="30" as="geometry">
            <mxRectangle width="30" height="30" as="alternateBounds" />
          </mxGeometry>
        </mxCell>
        <mxCell id="7Qh_DBudkcrgo4F9Finx-91" value="updateDateTime DateTime not null" style="shape=partialRectangle;overflow=hidden;connectable=0;fillColor=none;top=0;left=0;bottom=0;right=0;align=left;spacingLeft=6;" vertex="1" parent="7Qh_DBudkcrgo4F9Finx-89">
          <mxGeometry x="30" width="315" height="30" as="geometry">
            <mxRectangle width="315" height="30" as="alternateBounds" />
          </mxGeometry>
        </mxCell>
        <mxCell id="7Qh_DBudkcrgo4F9Finx-96" value="" style="edgeStyle=entityRelationEdgeStyle;fontSize=12;html=1;endArrow=ERoneToMany;startArrow=ERmandOne;rounded=0;exitX=1;exitY=0.5;exitDx=0;exitDy=0;" edge="1" parent="1" source="C-vyLk0tnHw3VtMMgP7b-24" target="7Qh_DBudkcrgo4F9Finx-83">
          <mxGeometry width="100" height="100" relative="1" as="geometry">
            <mxPoint x="370" y="320" as="sourcePoint" />
            <mxPoint x="470" y="220" as="targetPoint" />
          </mxGeometry>
        </mxCell>
        <mxCell id="7Qh_DBudkcrgo4F9Finx-97" value="" style="edgeStyle=entityRelationEdgeStyle;fontSize=12;html=1;endArrow=ERoneToMany;startArrow=ERmandOne;rounded=0;exitX=1;exitY=0.5;exitDx=0;exitDy=0;entryX=0;entryY=0.5;entryDx=0;entryDy=0;" edge="1" parent="1" source="7Qh_DBudkcrgo4F9Finx-46" target="7Qh_DBudkcrgo4F9Finx-92">
          <mxGeometry width="100" height="100" relative="1" as="geometry">
            <mxPoint x="500" y="160" as="sourcePoint" />
            <mxPoint x="600" y="60" as="targetPoint" />
          </mxGeometry>
        </mxCell>
      </root>
    </mxGraphModel>
  </diagram>
</mxfile>
